<svg width="184" height="183" viewBox="0 0 184 183" fill="none" xmlns="http://www.w3.org/2000/svg">
<path fill-rule="evenodd" clip-rule="evenodd" d="M91.7242 0C41.0663 0 0 40.9607 0 91.488C0 142.016 41.0663 182.976 91.7242 182.976C142.383 182.976 183.448 142.016 183.448 91.488C183.448 40.9607 142.383 0 91.7242 0ZM88.579 12.0957C89.6326 12.0543 90.6911 12.0337 91.7543 12.0337C123.852 12.0337 151.518 30.962 164.144 58.238H164.143C154.059 52.847 142.115 46.8537 133.688 42C133.691 47.8407 133.684 51.159 133.688 57C143.826 62.839 159.055 70.329 170.011 76.4333C170.425 78.5847 170.747 80.7687 170.984 82.9783C159.971 76.7787 144.131 69.0147 133.688 63C133.691 68.8407 133.684 72.159 133.688 78C144.189 84.048 160.153 91.8677 171.172 98.0837C171.016 99.9793 170.794 101.855 170.507 103.71C159.518 97.556 143.981 89.928 133.688 84C133.691 89.8407 133.684 93.159 133.688 99C143.006 104.367 156.627 111.129 167.277 116.928C166.694 118.65 166.051 120.344 165.356 122.012C141.769 109.341 118.182 96.6707 94.5944 84V99L159.272 133.743C158.373 135.169 157.43 136.563 156.445 137.927C110.059 113.009 63.6731 88.091 17.287 63.1737C17.8925 61.5923 18.5497 60.037 19.2518 58.506C21.3671 59.6433 23.4822 60.7807 25.5979 61.918V47.2033C27.3441 44.614 29.2407 42.1343 31.2725 39.7737V64.985C36.341 67.7087 41.4098 70.4323 46.4783 73.156V26.1067C48.4226 24.765 50.4284 23.5063 52.4927 22.338V76.379C57.5611 79.1023 62.6299 81.826 67.6987 84.5493V15.7227C69.5615 15.1347 71.4537 14.612 73.3733 14.16V87.6003L88.579 95.768V12.0957ZM12.6373 81.986C12.8725 80.024 13.1792 78.0843 13.5551 76.169C58.2444 100.175 102.933 124.181 147.622 148.187C146.22 149.563 144.768 150.888 143.267 152.158C99.7241 128.767 56.1808 105.377 12.6373 81.986ZM12.9129 103.123C12.6062 101.032 12.3826 98.9143 12.2423 96.774C51.8705 118.061 91.4987 139.348 131.126 160.636C129.276 161.687 127.38 162.667 125.441 163.57C87.9318 143.421 50.4224 123.272 12.9129 103.123ZM21.2609 128.607C19.894 126.028 18.6607 123.368 17.5794 120.63C47.7847 136.855 77.9894 153.08 108.194 169.306C105.346 169.902 102.442 170.346 99.4898 170.63C73.4134 156.622 47.337 142.615 21.2609 128.607Z" fill="url(#paint0_linear)"/>
<defs>
<linearGradient id="paint0_linear" x1="0" y1="91.4881" x2="183.449" y2="91.4881" gradientUnits="userSpaceOnUse">
<stop stop-color="#1D236D"/>
<stop offset="1" stop-color="#953DB3"/>
</linearGradient>
</defs>
</svg>
