<?xml version="1.0" encoding="utf-8"?>
<!-- Generator: Adobe Illustrator 24.1.1, SVG Export Plug-In . SVG Version: 6.00 Build 0)  -->
<svg version="1.1" id="Слой_1" xmlns="http://www.w3.org/2000/svg" xmlns:xlink="http://www.w3.org/1999/xlink" x="0px" y="0px"
	 viewBox="0 0 1090 347" style="enable-background:new 0 0 1090 347;" xml:space="preserve">
<style type="text/css">
	.st0{fill:#051C2C;}
</style>
<g>
	<path class="st0" d="M395.21,96.83c-16.82,0-31.06,5.8-42.73,17.39c-11.67,11.59-17.5,25.79-17.5,42.61
		c0,16.82,5.83,31.02,17.5,42.61c11.67,11.59,25.91,17.39,42.73,17.39c16.82,0,31.06-5.8,42.73-17.39
		c11.67-11.59,17.5-25.79,17.5-42.61c0-16.82-5.84-31.03-17.5-42.61C426.26,102.63,412.02,96.83,395.21,96.83z M413.84,176.15
		c-5,5-11.22,7.5-18.64,7.5c-7.43,0-13.64-2.5-18.64-7.5c-5-5-7.5-11.44-7.5-19.32c0-7.88,2.5-14.32,7.5-19.32
		c5-5,11.21-7.5,18.64-7.5c7.42,0,13.64,2.5,18.64,7.5c5,5,7.5,11.44,7.5,19.32C421.34,164.71,418.84,171.16,413.84,176.15z"/>
	<polygon class="st0" points="473.17,213.66 507.26,213.66 507.26,47.74 473.17,81.77 	"/>
	<path class="st0" d="M585.45,96.83c-17.73,0-32.24,5.72-43.52,17.16c-11.29,11.44-16.93,25.72-16.93,42.84
		c0,17.27,5.72,31.59,17.16,42.95c11.44,11.36,26.7,17.05,45.8,17.05c21.82,0,38.33-7.8,49.55-23.41l-27.43-15.52
		c-5.3,5.76-12.42,8.47-21.66,8.47c-14.24,0-23.33-5.3-27.27-15.91h80.68c0.91-4.24,1.36-8.79,1.36-13.64
		c0-17.12-5.49-31.4-16.48-42.84C615.71,102.55,601.96,96.83,585.45,96.83z M560.45,145.02c3.33-11.97,11.59-17.96,24.77-17.96
		c12.73,0,20.76,5.99,24.09,17.96H560.45z"/>
	<path class="st0" d="M709.77,186.38c-9.85,0-16.29-4.46-19.32-13.41l-29.55,16.82c8.64,18.03,24.92,27.04,48.86,27.04
		c13.33,0,24.55-3.14,33.64-9.43c9.09-6.28,13.64-15.57,13.64-27.84c0-7.88-1.93-14.43-5.8-19.66c-3.86-5.23-8.52-8.97-13.98-11.25
		c-5.45-2.27-10.91-4.12-16.36-5.57c-5.45-1.44-10.11-2.88-13.98-4.32c-3.86-1.44-5.8-3.3-5.8-5.57c0-4.24,3.18-6.36,9.55-6.36
		c6.51,0,11.59,3.33,15.23,10L755,121.15c-4.7-7.88-10.91-13.9-18.64-18.07c-7.73-4.17-16.29-6.25-25.68-6.25
		c-12.58,0-23.15,3.26-31.7,9.77c-8.56,6.51-12.84,15.68-12.84,27.5c0,7.27,1.93,13.41,5.79,18.41c3.86,5,8.52,8.67,13.98,11.02
		c5.46,2.35,10.91,4.25,16.37,5.68c5.45,1.44,10.11,2.92,13.98,4.44c3.86,1.51,5.79,3.41,5.79,5.68
		C722.04,184.04,717.95,186.38,709.77,186.38z"/>
	<path class="st0" d="M1009.84,109.33c-8.11-8.33-18.22-12.5-30.34-12.5c-14.85,0-25.68,4.62-32.5,13.86v-10.68h-34.09v113.64H947
		v-62.05c0-7.73,1.89-13.56,5.68-17.5c3.79-3.94,8.94-5.91,15.46-5.91c5.76,0,10.49,1.78,14.21,5.34c3.71,3.56,5.57,8.68,5.57,15.34
		v64.77H1022v-69.77C1022,129.18,1017.94,117.67,1009.84,109.33z"/>
	<polygon class="st0" points="283.15,213.66 317.24,213.66 317.24,47.74 284.04,80.95 199.61,165.38 182.05,147.82 157.94,123.71 
		68,213.66 116.21,213.66 157.94,171.92 199.61,213.59 199.62,213.58 223.72,189.48 283.15,130.05 	"/>
	<g>
		<path class="st0" d="M835.01,96.66c-16.82,0-31.06,5.8-42.73,17.39c-11.67,11.59-17.5,25.79-17.5,42.61
			c0,16.82,5.83,31.03,17.5,42.61c11.67,11.59,25.91,17.39,42.73,17.39c16.82,0,31.06-5.8,42.73-17.39
			c11.67-11.59,17.5-25.79,17.5-42.61c0-16.82-5.84-31.03-17.5-42.61C866.07,102.45,851.83,96.66,835.01,96.66z M853.64,175.98
			c-5,5-11.22,7.5-18.64,7.5c-7.43,0-13.64-2.5-18.64-7.5c-5-5-7.5-11.44-7.5-19.32c0-7.88,2.5-14.32,7.5-19.32
			c5-5,11.21-7.5,18.64-7.5c7.42,0,13.64,2.5,18.64,7.5c5,5,7.5,11.44,7.5,19.32C861.14,164.54,858.64,170.98,853.64,175.98z"/>
		<g>
			<g>
				<path class="st0" d="M68,257.15h4.14v41.41H68V257.15z"/>
				<path class="st0" d="M125.97,257.15h4.14v41.41h-3.55l-23.07-33.72v33.72h-4.14v-41.41h3.55l23.07,33.72V257.15z"/>
				<path class="st0" d="M168.44,298.55l-15.26-41.41h4.5l12.89,35.9l12.89-35.9h4.5l-15.26,41.41H168.44z"/>
				<path class="st0" d="M215.17,294.65h20.11v3.9h-24.25v-41.41h23.96v3.9h-19.82v14.67h18.33v3.91h-18.33V294.65z"/>
				<path class="st0" d="M273.14,299.26c-3.79,0-7.03-0.89-9.74-2.69c-2.7-1.79-4.58-4.27-5.64-7.43l3.55-2.06
					c0.74,2.56,2.13,4.55,4.14,6c2.01,1.44,4.59,2.15,7.75,2.15c3.07,0,5.47-0.68,7.18-2.04c1.72-1.36,2.58-3.17,2.58-5.42
					c0-2.17-0.79-3.81-2.37-4.91c-1.58-1.11-4.18-2.24-7.81-3.43c-4.3-1.42-7.14-2.56-8.52-3.43c-3.16-1.89-4.73-4.63-4.73-8.22
					c0-3.51,1.22-6.28,3.67-8.31c2.44-2.04,5.46-3.04,9.05-3.04c3.23,0,6.03,0.84,8.4,2.51c2.37,1.68,4.12,3.82,5.27,6.42
					l-3.49,1.96c-1.89-4.58-5.29-6.86-10.17-6.86c-2.56,0-4.64,0.63-6.21,1.89c-1.58,1.27-2.37,3.01-2.37,5.26
					c0,2.06,0.71,3.59,2.13,4.62c1.42,1.03,3.76,2.07,7.03,3.13c1.5,0.51,2.58,0.87,3.22,1.1c0.65,0.22,1.6,0.57,2.84,1.07
					c1.24,0.48,2.15,0.93,2.75,1.29c0.59,0.38,1.31,0.89,2.16,1.54c0.85,0.65,1.46,1.3,1.83,1.96s0.71,1.44,1,2.36
					c0.29,0.93,0.44,1.92,0.44,2.99c0,3.51-1.28,6.32-3.84,8.43S277.32,299.26,273.14,299.26z"/>
				<path class="st0" d="M336.49,257.15v3.9h-12.72v37.51h-4.14v-37.51h-12.72v-3.9H336.49z"/>
				<path class="st0" d="M398,257.15v41.41h-4.14v-35.13l-14.49,24.25h-0.59l-14.49-24.25v35.13h-4.14v-41.41h5.15l13.78,23.07
					l13.79-23.07H398z"/>
				<path class="st0" d="M429.36,294.65h20.11v3.9h-24.25v-41.41h23.96v3.9h-19.82v14.67h18.33v3.91h-18.33V294.65z"/>
				<path class="st0" d="M500.93,257.15h4.14v41.41h-3.55l-23.07-33.72v33.72h-4.14v-41.41h3.55l23.07,33.72V257.15z"/>
				<path class="st0" d="M558.31,257.15v3.9h-12.72v37.51h-4.14v-37.51h-12.72v-3.9H558.31z"/>
				<path class="st0" d="M629.29,257.15c3.71,0,6.8,1.24,9.28,3.73c2.49,2.48,3.73,5.57,3.73,9.28s-1.24,6.81-3.73,9.29
					c-2.49,2.48-5.58,3.72-9.28,3.72h-10.65v15.39h-4.14v-41.41H629.29z M629.29,279.27c2.56,0,4.68-0.85,6.36-2.57
					c1.68-1.71,2.51-3.89,2.51-6.54c0-2.64-0.84-4.82-2.51-6.54c-1.68-1.71-3.8-2.57-6.36-2.57h-10.65v18.22H629.29z"/>
				<path class="st0" d="M671.29,294.65h18.93v3.9h-23.07v-41.41h4.14V294.65z"/>
				<path class="st0" d="M742.62,298.55l-3.84-10.18h-19.64l-3.84,10.18h-4.38l15.91-41.41h4.26L747,298.55H742.62z M720.61,284.47
					h16.68l-8.34-22.18L720.61,284.47z"/>
				<path class="st0" d="M793.13,257.15v3.9h-12.71v37.51h-4.15v-37.51h-12.71v-3.9H793.13z"/>
				<path class="st0" d="M840.15,261.05h-19.22v15.27h18.34v3.9h-18.34v18.33h-4.14v-41.41h23.36V261.05z"/>
				<path class="st0" d="M899.25,293.02c-4.14,4.16-9.21,6.24-15.2,6.24s-11.05-2.07-15.2-6.24c-4.14-4.16-6.21-9.21-6.21-15.16
					c0-5.96,2.07-11.01,6.21-15.18c4.15-4.16,9.21-6.24,15.2-6.24s11.07,2.07,15.2,6.24c4.14,4.16,6.21,9.21,6.21,15.18
					C905.47,283.81,903.39,288.86,899.25,293.02z M871.74,290.19c3.31,3.37,7.41,5.05,12.31,5.05s8.99-1.68,12.31-5.05
					c3.31-3.38,4.97-7.49,4.97-12.33c0-4.85-1.66-8.97-4.97-12.35c-3.31-3.37-7.41-5.05-12.31-5.05s-8.99,1.68-12.31,5.05
					c-3.3,3.38-4.96,7.49-4.96,12.35C866.79,282.7,868.44,286.81,871.74,290.19z"/>
				<path class="st0" d="M955.75,298.55l-9.71-16.56h-11.59v16.56h-4.14v-41.41h16.56c3.43,0,6.36,1.21,8.78,3.64
					c2.43,2.43,3.64,5.35,3.64,8.78c0,2.81-0.85,5.3-2.52,7.48c-1.67,2.19-3.81,3.67-6.42,4.41l10.11,17.1H955.75z M934.45,261.05
					v17.04h12.42c2.28,0,4.24-0.85,5.86-2.52c1.61-1.67,2.41-3.68,2.41-6c0-2.36-0.81-4.37-2.41-6.03
					c-1.62-1.66-3.58-2.49-5.86-2.49H934.45z"/>
				<path class="st0" d="M1022,257.15v41.41h-4.15v-35.13l-14.49,24.25h-0.6l-14.49-24.25v35.13h-4.14v-41.41h5.14l13.78,23.07
					l13.78-23.07H1022z"/>
			</g>
		</g>
	</g>
</g>
</svg>
