<svg width="122" height="122" viewBox="0 0 122 122" fill="none" xmlns="http://www.w3.org/2000/svg">
<path d="M122 62.9677V47.1787C122 42.8003 119.182 39.0128 114.989 37.7551L102.323 33.9551V30.966C105.886 28.4736 108.226 24.347 108.226 19.6793V13.7742C108.226 6.17898 102.047 0 94.4516 0C86.8564 0 80.6774 6.17898 80.6774 13.7742V19.6774C80.6774 24.347 83.017 28.4736 86.5806 30.9641V33.9532L75.4179 37.3025C71.2288 33.5563 65.8915 31.4839 60.2246 31.4839C54.5808 31.4839 49.4174 33.5515 45.4272 36.9586L35.4194 33.9551V30.966C38.983 28.4736 41.3226 24.347 41.3226 19.6793V13.7742C41.3226 6.17898 35.1436 0 27.5484 0C19.9532 0 13.7742 6.17898 13.7742 13.7742V19.6774C13.7742 24.347 16.1138 28.4736 19.6774 30.9641V33.9532L7.01104 37.7532C2.81806 39.0128 0 42.8003 0 47.1787V62.9677H3.93548V47.1787C3.93548 44.5519 5.62555 42.2786 8.14288 41.5253L20.8131 37.7234C21.9584 39.2107 24.174 41.3226 27.5484 41.3226C30.9228 41.3226 33.1384 39.2107 34.2837 37.7234L42.3535 40.1437C39.792 43.3653 38.0856 47.2863 37.5677 51.5764C35.0552 48.9063 31.4973 47.2258 27.5484 47.2258C19.9532 47.2258 13.7742 53.4048 13.7742 61V66.9032C13.7742 71.5728 16.1138 75.6995 19.6774 78.1899V81.179L7.01104 84.979C2.81806 86.2386 0 90.0261 0 94.4045V112.161H23.6129C24.6967 112.161 25.5806 113.045 25.5806 114.129V122H96.4194V114.129C96.4194 113.045 97.3033 112.161 98.3871 112.161H122V94.4045C122 90.0261 119.182 86.2386 114.989 84.9809L102.323 81.1809V78.1918C105.886 75.6995 108.226 71.5728 108.226 66.9052V61.0019C108.226 53.4067 102.047 47.2277 94.4516 47.2277C90.5988 47.2277 87.1158 48.8217 84.6129 51.3794V49.5145C84.6129 45.628 82.501 42.1297 79.2055 40.2801L87.7163 37.7253C88.8616 39.2107 91.0772 41.3226 94.4516 41.3226C97.826 41.3226 100.042 39.2107 101.187 37.7234L113.859 41.5253C116.374 42.2786 118.065 44.5519 118.065 47.1787V62.9677H122ZM27.5484 3.93548C32.9731 3.93548 37.3871 8.34945 37.3871 13.7742H28.3632C27.1131 13.7742 25.8871 13.2669 25.0042 12.3829L23.6129 10.9917L22.2216 12.3829C21.3387 13.2669 20.1127 13.7742 18.8627 13.7742H17.7097C17.7097 8.34945 22.1236 3.93548 27.5484 3.93548ZM17.7097 19.6774V17.7097H18.8627C20.5767 17.7097 22.214 17.2177 23.6129 16.2992C25.0118 17.2177 26.6491 17.7097 28.3632 17.7097H37.3871V19.6774C37.3871 25.1022 32.9731 29.5161 27.5484 29.5161C22.1236 29.5161 17.7097 25.1022 17.7097 19.6774ZM27.5484 37.3871C25.4567 37.3871 24.101 35.6298 23.6129 34.8784V32.8732C24.86 33.245 26.1812 33.4516 27.5484 33.4516C28.9156 33.4516 30.2367 33.245 31.4839 32.8713V34.8765C30.9958 35.6317 29.6401 37.3871 27.5484 37.3871ZM81.6373 71.9244C82.6394 74.4696 84.3689 76.6459 86.5806 78.1918V81.1809L73.9162 84.9809C73.4992 85.1048 73.0937 85.2663 72.6979 85.445L70.8387 85.0164V81.1396C72.9419 79.4495 74.5993 77.23 75.6168 74.6858C77.8834 74.4869 80.0087 73.5223 81.6373 71.9244ZM61 84.6129C63.0878 84.6129 65.0796 84.1959 66.9032 83.4542V85.5968L61 90.0242L55.0968 85.5968V83.4542C56.9204 84.1959 58.9122 84.6129 61 84.6129ZM52.6803 88.704L57.4777 92.3032L52.5429 95.2645L51.2948 89.0249L52.6803 88.704ZM58.8257 104.29H63.1743L64.7049 118.065H57.2951L58.8257 104.29ZM63.5164 100.355H58.4817L57.3518 96.9661L61 94.7783L64.6463 96.9661L63.5164 100.355ZM64.5223 92.3032L69.3197 88.704L70.7052 89.023L69.4571 95.2625L64.5223 92.3032ZM79.143 68.9065C78.4618 69.654 77.5961 70.1777 76.6574 70.4967C76.7122 69.9615 76.7419 69.4196 76.7419 68.871V59.455C78.8596 60.2583 80.4353 62.1213 80.6476 64.3475C80.8091 66.0414 80.2758 67.6584 79.143 68.9065ZM72.8064 68.871C72.8064 75.3824 67.5114 80.6774 61 80.6774C54.4886 80.6774 49.1936 75.3824 49.1936 68.871V59.0323H55.8741C60.1622 59.0323 64.335 57.9619 68.0658 55.9173L69.6223 59.0323H72.8064V68.871ZM45.3426 70.4967C44.4039 70.1777 43.5382 69.654 42.857 68.9065C41.7242 67.6603 41.1909 66.0414 41.3524 64.3494C41.5647 62.1232 43.1404 60.2583 45.2581 59.4569V68.871C45.2581 69.4196 45.2878 69.9615 45.3426 70.4967ZM46.3832 74.6858C47.3988 77.23 49.0562 79.4495 51.1613 81.1396V85.0164L49.3021 85.445C48.9043 85.2663 48.5008 85.1068 48.0857 84.9809L35.4194 81.1809V78.1918C37.6292 76.6459 39.3606 74.4696 40.3627 71.9244C41.9913 73.5223 44.1166 74.4869 46.3832 74.6858ZM27.5484 51.1613C32.9731 51.1613 37.3871 55.5753 37.3871 61H36.2341C34.9841 61 33.7581 60.4927 32.8751 59.6087L31.4839 58.2175L30.0926 59.6087C29.2096 60.4927 27.9836 61 26.7336 61H17.7097C17.7097 55.5753 22.1236 51.1613 27.5484 51.1613ZM17.7097 66.9032V64.9355H26.7336C28.4477 64.9355 30.0849 64.4436 31.4839 63.525C32.8828 64.4436 34.52 64.9355 36.2341 64.9355H37.3871V66.9032C37.3871 72.328 32.9731 76.7419 27.5484 76.7419C22.1236 76.7419 17.7097 72.328 17.7097 66.9032ZM27.5484 80.6774C28.9156 80.6774 30.2367 80.4708 31.4839 80.0971V82.1023C30.9958 82.8575 29.6401 84.6129 27.5484 84.6129C25.4567 84.6129 24.101 82.8556 23.6129 82.1042V80.099C24.86 80.4708 26.1812 80.6774 27.5484 80.6774ZM23.6129 108.226H15.7419V94.4516H11.8065V108.226H3.93548V94.4045C3.93548 91.7777 5.62555 89.5044 8.14288 88.7511L20.8131 84.9492C21.9584 86.4365 24.174 88.5484 27.5484 88.5484C30.9228 88.5484 33.1384 86.4365 34.2837 84.9492L41.7453 87.1888L36.2572 88.4542C29.9706 89.906 25.5806 95.4259 25.5806 101.876V104.29H29.5161V101.876C29.5161 97.2678 32.6532 93.3265 37.1431 92.2888L47.4583 89.9079L49.7777 101.51L53.8948 99.0405L55.0593 102.535L53.3356 118.065H43.2903V102.323H39.3548V118.065H29.5161V114.129C29.5161 110.875 26.8672 108.226 23.6129 108.226ZM113.857 88.7511C116.374 89.5044 118.065 91.7777 118.065 94.4045V108.226H110.194V94.4516H106.258V108.226H98.3871C95.1328 108.226 92.4839 110.875 92.4839 114.129V118.065H82.6452V102.323H78.7097V118.065H68.6644L66.9388 102.535L68.1033 99.0405L72.2204 101.51L74.5398 89.9079L84.8569 92.2888C89.3468 93.3265 92.4839 97.2678 92.4839 101.876V104.29H96.4194V101.876C96.4194 95.4259 92.0294 89.906 85.7428 88.4542L80.2547 87.1888L87.7163 84.9492C88.8616 86.4365 91.0772 88.5484 94.4516 88.5484C97.826 88.5484 100.042 86.4365 101.187 84.9492L113.857 88.7511ZM98.3871 82.1042C97.899 82.8575 96.5433 84.6129 94.4516 84.6129C92.3561 84.6129 90.9985 82.8498 90.5161 82.1042V80.0971C91.7633 80.4708 93.0844 80.6774 94.4516 80.6774C95.8188 80.6774 97.14 80.4708 98.3871 80.0971V82.1042ZM94.4516 76.7419C89.0269 76.7419 84.6129 72.328 84.6129 66.9032V64.9355H85.7659C87.48 64.9355 89.1172 64.4436 90.5161 63.525C91.9151 64.4436 93.5523 64.9355 95.2664 64.9355H104.29V66.9032C104.29 72.328 99.8764 76.7419 94.4516 76.7419ZM94.4516 51.1613C99.8764 51.1613 104.29 55.5753 104.29 61H95.2664C94.0164 61 92.7904 60.4927 91.9074 59.6087L90.5161 58.2175L89.1249 59.6087C88.2419 60.4927 87.0159 61 85.7659 61H84.6129C84.6129 55.5753 89.0269 51.1613 94.4516 51.1613ZM80.6774 57.2317C78.9364 55.9135 76.7736 55.0968 74.436 55.0968H72.0551L69.6348 50.2562L67.7804 51.4918C64.2408 53.8516 60.1247 55.0968 55.8741 55.0968H47.564C45.2264 55.0968 43.0636 55.9135 41.3226 57.2317V54.3214C41.3226 43.9004 49.8037 35.4194 60.2246 35.4194C65.2737 35.4194 70.022 37.3852 73.5914 40.9546L75.6793 43.0424L76.1203 43.1904C78.8452 44.0993 80.6774 46.6397 80.6774 49.5125V57.2317ZM94.4516 3.93548C99.8764 3.93548 104.29 8.34945 104.29 13.7742H103.137C101.887 13.7742 100.661 13.2669 99.7784 12.3829L98.3871 10.9917L96.9958 12.3829C96.1129 13.2669 94.8869 13.7742 93.6368 13.7742H84.6129C84.6129 8.34945 89.0269 3.93548 94.4516 3.93548ZM84.6129 19.6774V17.7097H93.6368C95.3509 17.7097 96.9882 17.2177 98.3871 16.2992C99.786 17.2177 101.423 17.7097 103.137 17.7097H104.29V19.6774C104.29 25.1022 99.8764 29.5161 94.4516 29.5161C89.0269 29.5161 84.6129 25.1022 84.6129 19.6774ZM94.4516 37.3871C92.3561 37.3871 90.9985 35.624 90.5161 34.8784V32.8713C91.7633 33.245 93.0844 33.4516 94.4516 33.4516C95.8188 33.4516 97.14 33.245 98.3871 32.8713V34.8765C97.899 35.6317 96.5433 37.3871 94.4516 37.3871Z" fill="white" fill-opacity="0.8"/>
</svg>
