<svg width="14" height="12" viewBox="0 0 14 12" fill="none" xmlns="http://www.w3.org/2000/svg">
<path d="M5.44444 8.7551C4.53058 8.7551 3.66948 8.57395 2.91319 8.25421C2.1506 8.91177 1.21499 9.31246 0.22101 9.42731C0.213824 9.42814 0.206604 9.42856 0.199378 9.42857C0.108573 9.42857 0.0265417 9.36166 0.00452083 9.26622C-0.0192986 9.16013 0.0552708 9.09482 0.129111 9.01698C0.494107 8.63022 0.93659 8.32618 1.10965 7.02688C0.413559 6.29159 0 5.3738 0 4.37756C0 1.95964 2.43777 0 5.44444 0C8.45111 0 10.8889 1.95962 10.8889 4.37756C10.8889 6.79717 8.45111 8.7551 5.44444 8.7551Z" fill="#fcb12e"/>
<path opacity="0.3" d="M13.7335 11.3556C13.3946 11.004 12.9837 10.7276 12.823 9.54638C14.4954 7.81688 14.091 5.34277 11.9073 4C11.908 4.03573 11.9089 4.07144 11.9089 4.1073C11.9089 7.38837 8.75931 9.90357 5 9.76504C5.92655 10.5943 7.28445 11.1175 8.79779 11.1175C9.64639 11.1175 10.446 10.9528 11.1482 10.6621C11.8564 11.2599 12.7251 11.6242 13.6481 11.7286C13.7402 11.7392 13.8271 11.6757 13.8491 11.5822C13.8713 11.4857 13.802 11.4263 13.7335 11.3556Z" fill="#fcb12e"/>
</svg>
