<svg width="110" height="124" viewBox="0 0 110 124" fill="none" xmlns="http://www.w3.org/2000/svg">
<path d="M104.856 97.9423C103.507 90.0143 97.8273 83.5089 90.035 80.9666L72.7377 75.3231V72.8064H68.7169V76.4979L65.7154 88.2473L57.5955 78.7096H51.691L43.571 88.2473L40.5715 76.4979V72.8064H36.5508V75.3231L19.2534 80.9666C11.4632 83.5089 5.78387 90.0143 4.4329 97.9423L0 123.968H109.286L104.856 97.9423ZM44.8597 120.032H22.6892L24.4784 102.519L20.4778 102.128L18.6483 120.034H4.74853L8.39938 98.5917C9.50308 92.104 14.1511 86.7833 20.526 84.7014L37.1378 79.2803L41.5928 96.7204L46.1262 91.3957L48.5246 94.9179L44.8597 120.032ZM60.3678 120.032H48.9207L52.7223 93.9852L48.8101 88.2414L53.5747 82.6451H55.7117L60.4764 88.2414L56.5641 93.9852L60.3678 120.032ZM90.6401 120.032L88.8107 102.126L84.81 102.517L86.5993 120.03H64.4288L60.7638 94.9159L63.1622 91.3937L67.6956 96.7184L72.1507 79.2783L88.7624 84.6994C95.1374 86.7793 99.7834 92.1021 100.889 98.5897L104.54 120.032H90.6401Z" fill="white" fill-opacity="0.8"/>
<path d="M29.3979 53.0188C30.4232 56.4722 32.317 59.6383 34.9868 62.2515L42.8273 69.9257C44.7251 71.7832 47.2481 72.8064 49.934 72.8064H59.3566C62.0405 72.8064 64.5655 71.7832 66.4633 69.9257L74.3038 62.2515C76.9736 59.6383 78.8674 56.4703 79.8927 53.0188C84.9006 52.4639 88.8208 48.3395 88.8208 43.2903C88.8208 40.0613 87.2004 37.2139 84.7377 35.4194H84.8V23.6129C84.8 18.6876 81.0808 14.5947 76.2479 13.8844C73.2222 5.64348 65.1264 0 56.0918 0H54.6443C38.0164 0 24.4885 13.2409 24.4885 29.5161V35.4194H24.5509C22.0881 37.2139 20.4678 40.0613 20.4678 43.2903C20.4678 48.3395 24.388 52.4639 29.3979 53.0188ZM76.7585 46.9444C76.7585 51.6768 74.8768 56.1239 71.4591 59.4691L63.6186 67.1433C62.4968 68.2413 60.9428 68.871 59.3546 68.871H49.932C48.3438 68.871 46.7917 68.2413 45.6679 67.1433L37.8274 59.4691C34.4098 56.1239 32.5281 51.6768 32.5281 46.9464V37.3871H40.4269C49.2746 37.3871 57.6398 34.3115 64.2499 28.6779L64.8651 29.6814C67.4303 33.8668 71.8693 36.6492 76.7585 37.2553V46.9444ZM84.8 43.2903C84.8 45.8858 83.0671 48.0719 80.6848 48.859C80.7411 48.2274 80.7793 47.5898 80.7793 46.9464V37.7492C83.1133 38.5638 84.8 40.7283 84.8 43.2903ZM28.5093 29.5161C28.5093 15.4114 40.2339 3.93548 54.6443 3.93548H56.0918C63.8157 3.93548 70.6932 9.01226 72.8162 16.2831L73.2323 17.7097H74.7481C78.0733 17.7097 80.7793 20.3583 80.7793 23.6129V33.6504C80.1299 33.5205 79.4564 33.4516 78.7689 33.4516C74.5109 33.4516 70.5042 31.232 68.3129 27.6566L65.0943 22.4067L63.2729 24.1895C57.1713 30.1615 49.0594 33.4516 40.4289 33.4516H30.5197C29.8321 33.4516 29.1587 33.5205 28.5093 33.6504V29.5161ZM28.5093 37.7492V46.9464C28.5093 47.5898 28.5475 48.2274 28.6038 48.861C26.2215 48.0719 24.4885 45.8858 24.4885 43.2903C24.4885 40.7283 26.1753 38.5638 28.5093 37.7492Z" fill="white" fill-opacity="0.8"/>
</svg>
