<svg width="13" height="12" viewBox="0 0 13 12" fill="none" xmlns="http://www.w3.org/2000/svg">
<path opacity="0.3" d="M3 3.375V10.875C3 11.4963 2.49633 12 1.875 12H1.125C0.503672 12 0 11.4963 0 10.875V3.375C0 2.75367 0.503672 2.25 1.125 2.25H1.875C2.49633 2.25 3 2.75367 3 3.375Z" fill="#883BAC"/>
<path d="M12.125 4.875V10.875C12.125 11.4963 11.6213 12 11 12H4.625C4.00367 12 3.5 11.4963 3.5 10.875V0.9375C3.5 0.419742 3.91974 3.63916e-10 4.4375 3.63916e-10H9.29919C9.4223 -3.43e-06 9.54421 0.0242448 9.65795 0.07136C9.7717 0.118475 9.87504 0.187534 9.96209 0.274594L11.1004 1.41293C11.2762 1.58874 11.375 1.82718 11.375 2.07581V3.81427C11.8119 3.96874 12.125 4.3852 12.125 4.875ZM4.625 4.5H10.25V2.25H9.6875C9.37805 2.25 9.125 1.99695 9.125 1.6875V1.125H4.625V4.5ZM6.875 9.28125C6.875 9.12593 6.74907 9 6.59375 9H5.65625C5.50093 9 5.375 9.12593 5.375 9.28125V10.2188C5.375 10.3741 5.50093 10.5 5.65625 10.5H6.59375C6.74907 10.5 6.875 10.3741 6.875 10.2188V9.28125ZM6.875 6.28125C6.875 6.12593 6.74907 6 6.59375 6H5.65625C5.50093 6 5.375 6.12593 5.375 6.28125V7.21875C5.375 7.37407 5.50093 7.5 5.65625 7.5H6.59375C6.74907 7.5 6.875 7.37407 6.875 7.21875V6.28125ZM9.875 9.28125C9.875 9.12593 9.74907 9 9.59375 9H8.65625C8.50093 9 8.375 9.12593 8.375 9.28125V10.2188C8.375 10.3741 8.50093 10.5 8.65625 10.5H9.59375C9.74907 10.5 9.875 10.3741 9.875 10.2188V9.28125ZM9.875 6.28125C9.875 6.12593 9.74907 6 9.59375 6H8.65625C8.50093 6 8.375 6.12593 8.375 6.28125V7.21875C8.375 7.37407 8.50093 7.5 8.65625 7.5H9.59375C9.74907 7.5 9.875 7.37407 9.875 7.21875V6.28125Z" fill="#883BAC"/>
</svg>
