<svg width="52" height="52" viewBox="0 0 52 52" fill="none" xmlns="http://www.w3.org/2000/svg">
<path d="M16.8873 27.4057L16.8874 27.406C17.0853 27.8209 17.5039 28.0857 17.9644 28.0857H34.0358H34.0537C34.7122 28.0857 35.2466 27.5514 35.2466 26.8929C35.2466 26.5397 35.0931 26.2215 34.848 26.0034L26.8658 16.313C26.6388 16.037 26.3009 15.8786 25.9439 15.8786L25.9421 15.8786L25.9411 15.8786C25.5835 15.8798 25.2455 16.0409 25.0198 16.3191L17.0388 26.1402C16.7478 26.498 16.6894 26.9897 16.8873 27.4057ZM20.4707 25.7L25.9517 18.955L31.5072 25.7H20.4707Z" fill="#883EAC" stroke="#883EAC" stroke-width="0.6"/>
<path d="M24.8069 45.6429C24.8069 46.3014 25.3412 46.8357 25.9998 46.8357C26.6583 46.8357 27.1926 46.3014 27.1926 45.6429V26.8929C27.1926 26.2343 26.6583 25.7 25.9998 25.7C25.3412 25.7 24.8069 26.2343 24.8069 26.8929V45.6429Z" fill="#883EAC" stroke="#883EAC" stroke-width="0.6"/>
<path d="M1.89286 51.3H50.1071C50.7657 51.3 51.3 50.7657 51.3 50.1071V1.89286C51.3 1.23431 50.7657 0.7 50.1071 0.7H1.89286C1.23431 0.7 0.7 1.23431 0.7 1.89286V50.1071C0.7 50.7657 1.23431 51.3 1.89286 51.3ZM48.9143 3.08571V48.9143H3.08571V3.08571H48.9143Z" fill="#883EAC" stroke="#883EAC" stroke-width="0.6"/>
<path d="M1.89286 12.9071H50.1071C50.7657 12.9071 51.3 12.3728 51.3 11.7143C51.3 11.0557 50.7657 10.5214 50.1071 10.5214H1.89286C1.23431 10.5214 0.7 11.0557 0.7 11.7143C0.7 12.3728 1.23431 12.9071 1.89286 12.9071Z" fill="#883EAC" stroke="#883EAC" stroke-width="0.6"/>
</svg>
