<svg width="46" height="38" viewBox="0 0 46 38" fill="none" xmlns="http://www.w3.org/2000/svg">
<path d="M2.04444 0.0888672C0.929496 0.0888672 0 1.01837 0 2.13331V35.8666C0 36.9816 0.929496 37.9111 2.04444 37.9111H43.9556C45.0705 37.9111 46 36.9816 46 35.8666V2.13331C46 1.01837 45.0705 0.0888672 43.9556 0.0888672H2.04444ZM2.04444 2.13331H43.9556V10.3111H2.04444V2.13331ZM11.2444 3.15553C9.56288 3.15553 8.17778 4.54065 8.17778 6.2222C8.17778 7.90376 9.56287 9.28887 11.2444 9.28887C12.926 9.28887 14.3111 7.90376 14.3111 6.2222C14.3111 4.54065 12.926 3.15553 11.2444 3.15553ZM34.7556 3.15553C33.074 3.15553 31.6889 4.54065 31.6889 6.2222C31.6889 7.90376 33.074 9.28887 34.7556 9.28887C36.4371 9.28887 37.8222 7.90376 37.8222 6.2222C37.8222 4.54065 36.4371 3.15553 34.7556 3.15553ZM11.2444 5.19998C11.8211 5.19998 12.2667 5.64551 12.2667 6.2222C12.2667 6.79884 11.8211 7.24442 11.2444 7.24442C10.6678 7.24442 10.2222 6.79884 10.2222 6.2222C10.2222 5.64551 10.6678 5.19998 11.2444 5.19998ZM34.7556 5.19998C35.3322 5.19998 35.7778 5.64551 35.7778 6.2222C35.7778 6.79884 35.3322 7.24442 34.7556 7.24442C34.1789 7.24442 33.7333 6.79884 33.7333 6.2222C33.7333 5.64551 34.1789 5.19998 34.7556 5.19998ZM2.04444 12.3555H43.9556V35.8666H2.04444V12.3555ZM5.62222 14.9111V33.3111H32.2V25.1333H40.3778V14.9111H5.62222ZM7.66667 16.9555H13.8V23.0889H7.66667V16.9555ZM15.8444 16.9555H21.9778V23.0889H15.8444V16.9555ZM24.0222 16.9555H30.1556V23.0889H24.0222V16.9555ZM32.2 16.9555H38.3333V23.0889H32.2V16.9555ZM7.66667 25.1333H13.8V31.2666H7.66667V25.1333ZM15.8444 25.1333H21.9778V31.2666H15.8444V25.1333ZM24.0222 25.1333H30.1556V31.2666H24.0222V25.1333Z" fill="#883EAC"/>
</svg>
