<svg width="51" height="48" viewBox="0 0 51 48" fill="none" xmlns="http://www.w3.org/2000/svg">
<path d="M49.4024 45.7794H2.49512V2.13296C2.49512 1.63802 2.0925 1.2354 1.59756 1.2354C1.10262 1.2354 0.7 1.63802 0.7 2.13296V46.6758C0.7 47.1715 1.10281 47.5733 1.59756 47.5733H49.4024C49.898 47.5733 50.3 47.1713 50.3 46.6758C50.3 46.181 49.8976 45.7794 49.4024 45.7794Z" fill="#883EAC" stroke="#883EAC" stroke-width="0.6"/>
<path d="M8.1708 41.9598C8.66555 41.9598 9.06836 41.5579 9.06836 41.0622V29.111C9.06836 28.6153 8.66555 28.2134 8.1708 28.2134C7.67606 28.2134 7.27324 28.6153 7.27324 29.111V41.0622C7.27324 41.5579 7.67606 41.9598 8.1708 41.9598Z" fill="#883EAC" stroke="#883EAC" stroke-width="0.6"/>
<path d="M13.2488 24.3306V41.0623C13.2488 41.558 13.6516 41.9599 14.1464 41.9599C14.6411 41.9599 15.044 41.558 15.044 41.0623V24.3306C15.044 23.8349 14.6411 23.433 14.1464 23.433C13.6516 23.433 13.2488 23.8349 13.2488 24.3306Z" fill="#883EAC" stroke="#883EAC" stroke-width="0.6"/>
<path d="M19.2244 21.3427V41.0622C19.2244 41.5579 19.6272 41.9598 20.122 41.9598C20.6167 41.9598 21.0195 41.5579 21.0195 41.0622V21.3427C21.0195 20.8469 20.6167 20.4451 20.122 20.4451C19.6272 20.4451 19.2244 20.8469 19.2244 21.3427Z" fill="#883EAC" stroke="#883EAC" stroke-width="0.6"/>
<path d="M26.0976 25.6739C25.6028 25.6739 25.2 26.0757 25.2 26.5714V41.0623C25.2 41.558 25.6028 41.9599 26.0976 41.9599C26.5931 41.9599 26.9951 41.5578 26.9951 41.0623V26.5714C26.9951 26.0759 26.5931 25.6739 26.0976 25.6739Z" fill="#883EAC" stroke="#883EAC" stroke-width="0.6"/>
<path d="M32.0731 16.4864C31.5776 16.4864 31.1756 16.8884 31.1756 17.3839V41.0623C31.1756 41.5578 31.5776 41.9599 32.0731 41.9599C32.5687 41.9599 32.9707 41.5578 32.9707 41.0623V17.3839C32.9707 16.8884 32.5687 16.4864 32.0731 16.4864Z" fill="#883EAC" stroke="#883EAC" stroke-width="0.6"/>
<path d="M38.0487 14.3201C37.5532 14.3201 37.1512 14.7221 37.1512 15.2177V41.0622C37.1512 41.5577 37.5532 41.9598 38.0487 41.9598C38.5443 41.9598 38.9463 41.5577 38.9463 41.0622V15.2177C38.9463 14.7221 38.5443 14.3201 38.0487 14.3201Z" fill="#883EAC" stroke="#883EAC" stroke-width="0.6"/>
<path d="M8.6555 25.9081L8.65623 25.9076L20.1218 18.5259L25.6104 22.0595C25.9897 22.3051 26.5165 22.2168 26.7968 21.8676L32.7327 14.482L38.1968 8.9602V12.1553C38.1968 12.4859 38.4649 12.7541 38.7955 12.7541H39.3931C39.7237 12.7541 39.9919 12.4859 39.9919 12.1553V6.47847C39.9919 6.14786 39.7237 5.87969 39.3931 5.87969H33.7163C33.3857 5.87969 33.1175 6.14786 33.1175 6.47847V7.07603C33.1175 7.40664 33.3857 7.67481 33.7163 7.67481H36.9436L31.4372 13.2393C31.437 13.2395 31.4368 13.2397 31.4366 13.2399C31.4273 13.2492 31.4172 13.26 31.4067 13.2724C31.3972 13.2823 31.3881 13.2923 31.3791 13.3028L31.379 13.3027L31.3731 13.31L25.9042 20.1126L20.6068 16.7032L20.6063 16.7029C20.3149 16.5161 19.9292 16.5153 19.6362 16.7028L19.6355 16.7033L7.68428 24.3969L7.68392 24.3971C7.26908 24.665 7.14696 25.2206 7.41509 25.6366C7.58085 25.8952 7.86415 26.0498 8.17055 26.0498C8.34321 26.0498 8.51105 26.0005 8.6555 25.9081Z" fill="#883EAC" stroke="#883EAC" stroke-width="0.6"/>
</svg>
