<svg width="192" height="191" viewBox="0 0 192 191" fill="none" xmlns="http://www.w3.org/2000/svg">
<g filter="url(#filter0_d)">
<mask id="mask0" mask-type="alpha" maskUnits="userSpaceOnUse" x="4" y="0" width="184" height="183">
<path d="M95.7242 0C45.0663 0 4 40.9607 4 91.488C4 142.016 45.0663 182.976 95.7242 182.976C146.383 182.976 187.448 142.016 187.448 91.488C187.448 40.9607 146.383 0 95.7242 0ZM92.579 12.0957C93.6326 12.0543 94.6911 12.0337 95.7543 12.0337C127.852 12.0337 155.518 30.962 168.144 58.238H168.143C158.059 52.847 146.115 46.8537 137.688 42C137.691 47.8407 137.684 51.159 137.688 57C147.826 62.839 163.055 70.329 174.011 76.4333C174.425 78.5847 174.747 80.7687 174.984 82.9783C163.971 76.7787 148.131 69.0147 137.688 63C137.691 68.8407 137.684 72.159 137.688 78C148.189 84.048 164.153 91.8677 175.172 98.0837C175.016 99.9793 174.794 101.855 174.507 103.71C163.518 97.556 147.981 89.928 137.688 84C137.691 89.8407 137.684 93.159 137.688 99C147.006 104.367 160.627 111.129 171.277 116.928C170.694 118.65 170.051 120.344 169.356 122.012C145.769 109.341 122.182 96.6707 98.5944 84V99L163.272 133.743C162.373 135.169 161.43 136.563 160.445 137.927C114.059 113.009 67.6731 88.091 21.287 63.1737C21.8925 61.5923 22.5497 60.037 23.2518 58.506C25.3671 59.6433 27.4822 60.7807 29.5979 61.918V47.2033C31.3441 44.614 33.2407 42.1343 35.2725 39.7737V64.985C40.341 67.7087 45.4098 70.4323 50.4783 73.156V26.1067C52.4226 24.765 54.4284 23.5063 56.4927 22.338V76.379C61.5611 79.1023 66.6299 81.826 71.6987 84.5493V15.7227C73.5615 15.1347 75.4537 14.612 77.3733 14.16V87.6003L92.579 95.768V12.0957ZM16.6373 81.986C16.8725 80.024 17.1792 78.0843 17.5551 76.169C62.2444 100.175 106.933 124.181 151.622 148.187C150.22 149.563 148.768 150.888 147.267 152.158C103.724 128.767 60.1808 105.377 16.6373 81.986ZM16.9129 103.123C16.6062 101.032 16.3826 98.9143 16.2423 96.774C55.8705 118.061 95.4987 139.348 135.126 160.636C133.276 161.687 131.38 162.667 129.441 163.57C91.9318 143.421 54.4224 123.272 16.9129 103.123ZM25.2609 128.607C23.894 126.028 22.6607 123.368 21.5794 120.63C51.7847 136.855 81.9894 153.08 112.194 169.306C109.346 169.902 106.442 170.346 103.49 170.63C77.4134 156.622 51.337 142.615 25.2609 128.607Z" fill="white"/>
</mask>
<g mask="url(#mask0)">
<path fill-rule="evenodd" clip-rule="evenodd" d="M95.7242 0C45.0663 0 4 40.9607 4 91.488C4 142.016 45.0663 182.976 95.7242 182.976C146.383 182.976 187.448 142.016 187.448 91.488C187.448 40.9607 146.383 0 95.7242 0ZM92.579 12.0957C93.6326 12.0543 94.6911 12.0337 95.7543 12.0337C127.852 12.0337 155.518 30.962 168.144 58.238H168.143C158.059 52.847 146.115 46.8537 137.688 42C137.691 47.8407 137.684 51.159 137.688 57C147.826 62.839 163.055 70.329 174.011 76.4333C174.425 78.5847 174.747 80.7687 174.984 82.9783C163.971 76.7787 148.131 69.0147 137.688 63C137.691 68.8407 137.684 72.159 137.688 78C148.189 84.048 164.153 91.8677 175.172 98.0837C175.016 99.9793 174.794 101.855 174.507 103.71C163.518 97.556 147.981 89.928 137.688 84C137.691 89.8407 137.684 93.159 137.688 99C147.006 104.367 160.627 111.129 171.277 116.928C170.694 118.65 170.051 120.344 169.356 122.012C145.769 109.341 122.182 96.6707 98.5944 84V99L163.272 133.743C162.373 135.169 161.43 136.563 160.445 137.927C114.059 113.009 67.6731 88.091 21.287 63.1737C21.8925 61.5923 22.5497 60.037 23.2518 58.506C25.3671 59.6433 27.4822 60.7807 29.5979 61.918V47.2033C31.3441 44.614 33.2407 42.1343 35.2725 39.7737V64.985C40.341 67.7087 45.4098 70.4323 50.4783 73.156V26.1067C52.4226 24.765 54.4284 23.5063 56.4927 22.338V76.379C61.5611 79.1023 66.6299 81.826 71.6987 84.5493V15.7227C73.5615 15.1347 75.4537 14.612 77.3733 14.16V87.6003L92.579 95.768V12.0957ZM16.6373 81.986C16.8725 80.024 17.1792 78.0843 17.5551 76.169C62.2444 100.175 106.933 124.181 151.622 148.187C150.22 149.563 148.768 150.888 147.267 152.158C103.724 128.767 60.1808 105.377 16.6373 81.986ZM16.9129 103.123C16.6062 101.032 16.3826 98.9143 16.2423 96.774C55.8705 118.061 95.4987 139.348 135.126 160.636C133.276 161.687 131.38 162.667 129.441 163.57C91.9318 143.421 54.4224 123.272 16.9129 103.123ZM25.2609 128.607C23.894 126.028 22.6607 123.368 21.5794 120.63C51.7847 136.855 81.9894 153.08 112.194 169.306C109.346 169.902 106.442 170.346 103.49 170.63C77.4134 156.622 51.337 142.615 25.2609 128.607Z" fill="url(#paint0_linear)"/>
</g>
</g>
<defs>
<filter id="filter0_d" x="0" y="0" width="191.448" height="190.976" filterUnits="userSpaceOnUse" color-interpolation-filters="sRGB">
<feFlood flood-opacity="0" result="BackgroundImageFix"/>
<feColorMatrix in="SourceAlpha" type="matrix" values="0 0 0 0 0 0 0 0 0 0 0 0 0 0 0 0 0 0 127 0"/>
<feOffset dy="4"/>
<feGaussianBlur stdDeviation="2"/>
<feColorMatrix type="matrix" values="0 0 0 0 0 0 0 0 0 0 0 0 0 0 0 0 0 0 0.25 0"/>
<feBlend mode="normal" in2="BackgroundImageFix" result="effect1_dropShadow"/>
<feBlend mode="normal" in="SourceGraphic" in2="effect1_dropShadow" result="shape"/>
</filter>
<linearGradient id="paint0_linear" x1="4" y1="91.4881" x2="187.449" y2="91.4881" gradientUnits="userSpaceOnUse">
<stop stop-color="#1D236D"/>
<stop offset="1" stop-color="#953DB3"/>
</linearGradient>
</defs>
</svg>
