<svg width="143" height="47" viewBox="0 0 143 47" fill="none" xmlns="http://www.w3.org/2000/svg">
<mask id="mask0" mask-type="alpha" maskUnits="userSpaceOnUse" x="0" y="0" width="48" height="47">
<path d="M23.5486 0C10.5431 0 0 10.52 0 23.4969C0 36.474 10.5431 46.9939 23.5486 46.9939C36.5542 46.9939 47.0972 36.474 47.0972 23.4969C47.0972 10.52 36.5542 0 23.5486 0ZM22.7411 3.10654C23.0116 3.09592 23.2834 3.09061 23.5563 3.09061C31.797 3.09061 38.8997 7.95199 42.141 14.9573H42.1409C39.5519 13.5727 36.4856 12.0335 34.3221 10.7869C34.3229 12.2869 34.3211 13.1392 34.3221 14.6393C36.9247 16.139 40.8346 18.0626 43.6473 19.6304C43.7537 20.1829 43.8364 20.7439 43.8971 21.3114C41.0697 19.7191 37.0031 17.7251 34.3221 16.1803C34.3229 17.6804 34.3211 18.5326 34.3221 20.0328C37.018 21.5861 41.1165 23.5944 43.9454 25.1909C43.9054 25.6778 43.8482 26.1595 43.7747 26.636C40.9534 25.0554 36.9645 23.0963 34.3221 21.5738C34.3229 23.0738 34.3211 23.9261 34.3221 25.4262C36.7142 26.8046 40.2113 28.5412 42.9454 30.0306C42.7958 30.473 42.6307 30.9081 42.4522 31.3363C36.3967 28.0821 30.3411 24.828 24.2855 21.5738V25.4262L40.8903 34.3493C40.6596 34.7156 40.4174 35.0736 40.1646 35.4238C28.2558 29.0242 16.347 22.6245 4.43815 16.2249C4.59359 15.8188 4.76232 15.4193 4.94255 15.0261C5.48564 15.3182 6.02865 15.6103 6.57182 15.9024V12.1233C7.02013 11.4582 7.50703 10.8214 8.02867 10.2151V16.6901C9.32991 17.3897 10.6312 18.0892 11.9325 18.7887V6.70499C12.4317 6.36041 12.9466 6.03715 13.4766 5.73708V19.6165C14.7778 20.3159 16.0791 21.0154 17.3805 21.7149V4.03806C17.8587 3.88705 18.3445 3.75281 18.8373 3.63672V22.4984L22.7411 24.5962V3.10654ZM3.24439 21.0565C3.30478 20.5526 3.38353 20.0544 3.48004 19.5625C14.9532 25.728 26.4263 31.8935 37.8995 38.059C37.5395 38.4123 37.1667 38.7526 36.7814 39.0788C25.6024 33.0713 14.4234 27.064 3.24439 21.0565ZM3.31516 26.4851C3.23642 25.9481 3.17903 25.4042 3.143 24.8545C13.3168 30.3217 23.4907 35.7889 33.6644 41.2562C33.1894 41.5262 32.7027 41.7778 32.2048 42.0099C22.575 36.8349 12.9451 31.66 3.31516 26.4851ZM5.45836 33.0303C5.10743 32.3679 4.7908 31.6846 4.51321 30.9814C12.2679 35.1486 20.0224 39.3157 27.777 43.483C27.0457 43.636 26.3001 43.7502 25.5423 43.8229C18.8476 40.2254 12.1529 36.6279 5.45836 33.0303Z" fill="white"/>
</mask>
<g mask="url(#mask0)">
<path fill-rule="evenodd" clip-rule="evenodd" d="M23.5486 0C10.5431 0 0 10.52 0 23.4969C0 36.474 10.5431 46.9939 23.5486 46.9939C36.5542 46.9939 47.0972 36.474 47.0972 23.4969C47.0972 10.52 36.5542 0 23.5486 0ZM22.7411 3.10654C23.0116 3.09592 23.2834 3.09061 23.5563 3.09061C31.797 3.09061 38.8997 7.95199 42.141 14.9573H42.1409C39.5519 13.5727 36.4856 12.0335 34.3221 10.7869C34.3229 12.2869 34.3211 13.1392 34.3221 14.6393C36.9247 16.139 40.8346 18.0626 43.6473 19.6304C43.7537 20.1829 43.8364 20.7439 43.8971 21.3114C41.0697 19.7191 37.0031 17.7251 34.3221 16.1803C34.3229 17.6804 34.3211 18.5326 34.3221 20.0328C37.018 21.5861 41.1165 23.5944 43.9454 25.1909C43.9054 25.6778 43.8482 26.1595 43.7747 26.636C40.9534 25.0554 36.9645 23.0963 34.3221 21.5738C34.3229 23.0738 34.3211 23.9261 34.3221 25.4262C36.7142 26.8046 40.2113 28.5412 42.9454 30.0306C42.7958 30.473 42.6307 30.9081 42.4522 31.3363C36.3967 28.0821 30.3411 24.828 24.2855 21.5738V25.4262L40.8903 34.3493C40.6596 34.7156 40.4174 35.0736 40.1646 35.4238C28.2558 29.0242 16.347 22.6245 4.43815 16.2249C4.59359 15.8188 4.76232 15.4193 4.94255 15.0261C5.48564 15.3182 6.02865 15.6103 6.57182 15.9024V12.1233C7.02013 11.4582 7.50703 10.8214 8.02867 10.2151V16.6901C9.32991 17.3897 10.6312 18.0892 11.9325 18.7887V6.70499C12.4317 6.36041 12.9466 6.03715 13.4766 5.73708V19.6165C14.7778 20.3159 16.0791 21.0154 17.3805 21.7149V4.03806C17.8587 3.88705 18.3445 3.75281 18.8373 3.63672V22.4984L22.7411 24.5962V3.10654ZM3.24439 21.0565C3.30478 20.5526 3.38353 20.0544 3.48004 19.5625C14.9532 25.728 26.4263 31.8935 37.8995 38.059C37.5395 38.4123 37.1667 38.7526 36.7814 39.0788C25.6024 33.0713 14.4234 27.064 3.24439 21.0565ZM3.31516 26.4851C3.23642 25.9481 3.17903 25.4042 3.143 24.8545C13.3168 30.3217 23.4907 35.7889 33.6644 41.2562C33.1894 41.5262 32.7027 41.7778 32.2048 42.0099C22.575 36.8349 12.9451 31.66 3.31516 26.4851ZM5.45836 33.0303C5.10743 32.3679 4.7908 31.6846 4.51321 30.9814C12.2679 35.1486 20.0224 39.3157 27.777 43.483C27.0457 43.636 26.3001 43.7502 25.5423 43.8229C18.8476 40.2254 12.1529 36.6279 5.45836 33.0303Z" fill="url(#paint0_linear)"/>
</g>
<path fill-rule="evenodd" clip-rule="evenodd" d="M141.027 22.9304H138.311C138.378 22.4427 138.533 22.0679 138.774 21.8059C139.015 21.544 139.329 21.413 139.716 21.413C140.131 21.413 140.451 21.5315 140.676 21.7686C140.901 22.0057 141.018 22.3411 141.027 22.7746V22.9304ZM142.947 23.4632C142.947 22.3078 142.659 21.4153 142.085 20.7858C141.511 20.1564 140.723 19.8416 139.723 19.8416C139.056 19.8416 138.463 19.9978 137.943 20.3103C137.422 20.6228 137.02 21.068 136.736 21.6457C136.452 22.2234 136.311 22.8788 136.311 23.6116V23.8005C136.311 24.8929 136.647 25.7674 137.321 26.4239C137.994 27.0804 138.867 27.4085 139.939 27.4085C140.548 27.4085 141.102 27.2928 141.602 27.0612C142.102 26.8297 142.498 26.5072 142.791 26.0935L141.832 25.0211C141.408 25.5652 140.82 25.8372 140.068 25.8372C139.581 25.8372 139.179 25.6933 138.862 25.4056C138.544 25.1178 138.354 24.7356 138.291 24.259H142.947V23.4632ZM134.346 25.6281C134.242 25.5112 134.19 25.3178 134.19 25.0482V21.4062H135.44V19.9764H134.19V18.1826H132.237V19.9764H131.169V21.4062H132.237V25.3381C132.264 26.7185 132.962 27.4085 134.332 27.4085C134.738 27.4085 135.132 27.35 135.515 27.2332V25.7562C135.348 25.7877 135.157 25.8034 134.94 25.8034C134.647 25.8034 134.449 25.745 134.346 25.6281ZM128.213 25.21C128.096 25.4258 127.916 25.5978 127.673 25.7259C127.43 25.854 127.164 25.9181 126.875 25.9181C126.578 25.9181 126.344 25.8394 126.173 25.682C126.001 25.5247 125.916 25.3246 125.916 25.0818L125.923 24.9672C125.986 24.2928 126.506 23.9555 127.484 23.9555H128.213V25.21ZM130.173 22.4246C130.173 21.6064 129.909 20.9712 129.379 20.5194C128.85 20.0675 128.135 19.8416 127.234 19.8416C126.639 19.8416 126.103 19.9439 125.625 20.1484C125.148 20.3531 124.778 20.6352 124.517 20.9949C124.256 21.3546 124.125 21.7457 124.125 22.1683H126.078C126.078 21.8942 126.172 21.6784 126.359 21.5209C126.545 21.3636 126.803 21.2848 127.132 21.2848C127.506 21.2848 127.78 21.386 127.953 21.5883C128.127 21.7907 128.213 22.0604 128.213 22.3977V22.8158H127.315C126.229 22.8203 125.399 23.0294 124.824 23.443C124.25 23.8567 123.963 24.4502 123.963 25.2235C123.963 25.853 124.198 26.3745 124.669 26.7881C125.14 27.2018 125.733 27.4085 126.45 27.4085C127.207 27.4085 127.822 27.1455 128.295 26.6194C128.335 26.8803 128.4 27.0983 128.491 27.2737H130.464V27.159C130.275 26.8039 130.178 26.28 130.173 25.5877V22.4246ZM121.805 25.6281C121.701 25.5112 121.649 25.3178 121.649 25.0482V21.4062H122.9V19.9764H121.649V18.1826H119.697V19.9764H118.629V21.4062H119.697V25.3381C119.724 26.7185 120.422 27.4085 121.791 27.4085C122.197 27.4085 122.591 27.35 122.974 27.2332V25.7562C122.807 25.7877 122.616 25.8034 122.4 25.8034C122.107 25.8034 121.909 25.745 121.805 25.6281ZM116.19 23.2137C115.856 23.0923 115.447 22.9833 114.96 22.8866C114.473 22.7899 114.128 22.6753 113.923 22.5426C113.718 22.4101 113.615 22.2358 113.615 22.0199C113.615 21.7907 113.705 21.6018 113.886 21.4535C114.066 21.3051 114.32 21.2309 114.649 21.2309C115.032 21.2309 115.314 21.3219 115.494 21.504C115.674 21.6861 115.764 21.9166 115.764 22.1953H117.717C117.717 21.4984 117.439 20.9319 116.883 20.4957C116.326 20.0597 115.584 19.8416 114.656 19.8416C113.786 19.8416 113.082 20.0585 112.544 20.4924C112.006 20.9264 111.737 21.4669 111.737 22.1144C111.737 23.2249 112.606 23.9623 114.345 24.3265C114.868 24.4344 115.247 24.557 115.484 24.694C115.72 24.8312 115.838 25.0189 115.838 25.2571C115.838 25.4865 115.743 25.6719 115.551 25.8135C115.36 25.9552 115.077 26.026 114.703 26.026C114.302 26.026 113.982 25.9339 113.744 25.7495C113.505 25.5652 113.376 25.2999 113.358 24.9536H111.507C111.507 25.3944 111.642 25.8046 111.912 26.1845C112.183 26.5645 112.555 26.8634 113.031 27.0815C113.506 27.2995 114.05 27.4085 114.663 27.4085C115.568 27.4085 116.307 27.2029 116.879 26.7914C117.451 26.3801 117.737 25.8417 117.737 25.1762C117.737 24.2456 117.222 23.5913 116.19 23.2137ZM105.921 23.0181H109.814V21.4332H105.921V19.0929H110.476V17.4542H103.894V27.2737H110.489V25.6484H105.921V23.0181ZM96.4611 22.9304H93.7446C93.8121 22.4427 93.9664 22.0679 94.2074 21.8059C94.4484 21.544 94.7626 21.413 95.1501 21.413C95.5645 21.413 95.8844 21.5315 96.1098 21.7686C96.335 22.0057 96.452 22.3411 96.4611 22.7746V22.9304ZM95.1569 19.8416C94.4901 19.8416 93.8965 19.9978 93.3762 20.3103C92.8559 20.6228 92.4538 21.068 92.1699 21.6457C91.8862 22.2234 91.7442 22.8788 91.7442 23.6116V23.8005C91.7442 24.8929 92.0809 25.7674 92.7545 26.4239C93.4279 27.0804 94.3009 27.4085 95.3732 27.4085C95.9814 27.4085 96.5355 27.2928 97.0355 27.0612C97.5356 26.8297 97.932 26.5072 98.2249 26.0935L97.2654 25.0211C96.8418 25.5652 96.2539 25.8372 95.5015 25.8372C95.0149 25.8372 94.6129 25.6933 94.2953 25.4056C93.9775 25.1178 93.7873 24.7356 93.7242 24.259H98.3804V23.4632C98.3804 22.3078 98.0932 21.4153 97.5187 20.7858C96.9443 20.1564 96.157 19.8416 95.1569 19.8416ZM88.6911 20.8465L88.6371 19.9764H86.7922V27.2737H88.7451V22.4988C88.975 21.9997 89.4593 21.7502 90.1981 21.7502C90.4008 21.7502 90.6351 21.7682 90.901 21.8041L90.928 19.9293C90.7388 19.8709 90.536 19.8416 90.3198 19.8416C89.626 19.8416 89.0831 20.1766 88.6911 20.8465ZM83.4768 22.9304H80.7602C80.8278 22.4427 80.9821 22.0679 81.2231 21.8059C81.4641 21.544 81.7784 21.413 82.1659 21.413C82.5803 21.413 82.9002 21.5315 83.1255 21.7686C83.3507 22.0057 83.4678 22.3411 83.4768 22.7746V22.9304ZM82.1726 19.8416C81.5058 19.8416 80.9123 19.9978 80.3919 20.3103C79.8716 20.6228 79.4695 21.068 79.1857 21.6457C78.9018 22.2234 78.7599 22.8788 78.7599 23.6116V23.8005C78.7599 24.8929 79.0966 25.7674 79.7702 26.4239C80.4437 27.0804 81.3166 27.4085 82.3889 27.4085C82.9971 27.4085 83.5513 27.2928 84.0513 27.0612C84.5514 26.8297 84.9477 26.5072 85.2407 26.0935L84.281 25.0211C83.8575 25.5652 83.2695 25.8372 82.5172 25.8372C82.0307 25.8372 81.6286 25.6933 81.311 25.4056C80.9934 25.1178 80.8029 24.7356 80.74 24.259H85.396V23.4632C85.396 22.3078 85.1089 21.4153 84.5344 20.7858C83.96 20.1564 83.1727 19.8416 82.1726 19.8416ZM74.9731 19.8416C74.1892 19.8416 73.5381 20.1518 73.02 20.7723V16.9146H71.067V27.2737H73.02V22.0874C73.2769 21.6468 73.6913 21.4265 74.2635 21.4265C74.6825 21.4265 74.9821 21.5266 75.1623 21.7266C75.3424 21.9267 75.4326 22.2358 75.4326 22.6539V27.2737H77.3856V22.6C77.363 20.7611 76.5588 19.8416 74.9731 19.8416ZM66.2899 25.8372C65.6771 25.8372 65.2514 25.5967 65.0126 25.1155V22.1278C65.2425 21.6603 65.6637 21.4265 66.2764 21.4265C66.7359 21.4265 67.0862 21.6108 67.3272 21.9795C67.5681 22.3482 67.6887 22.872 67.6887 23.5509C67.6887 25.075 67.2225 25.8372 66.2899 25.8372ZM66.79 19.8416C66.0286 19.8416 65.4115 20.1249 64.9384 20.6914L64.8708 19.9764H63.0597V30.0792H65.0126V26.6397C65.4677 27.1523 66.0646 27.4085 66.8034 27.4085C67.6729 27.4085 68.3634 27.0703 68.8748 26.3936C69.386 25.7169 69.6417 24.8166 69.6417 23.6925V23.5913C69.6417 22.4224 69.3917 21.5052 68.8917 20.8397C68.3915 20.1744 67.691 19.8416 66.79 19.8416ZM56.725 19.2447C56.9998 19.0357 57.3849 18.9311 57.8806 18.9311C58.3942 18.9311 58.7929 19.0559 59.0767 19.3054C59.3606 19.555 59.5025 19.9046 59.5025 20.3541H61.5298C61.5298 19.7651 61.3777 19.2392 61.0736 18.776C60.7695 18.3129 60.3426 17.9543 59.793 17.7003C59.2432 17.4463 58.6172 17.3193 57.9143 17.3193C57.216 17.3193 56.5865 17.4362 56.0256 17.6699C55.4647 17.9038 55.0344 18.2287 54.7348 18.6445C54.4352 19.0604 54.2854 19.5337 54.2854 20.0642C54.2854 21.0848 54.844 21.8963 55.9614 22.4988C56.3712 22.7191 56.9277 22.9428 57.6305 23.1699C58.3333 23.3969 58.8199 23.6127 59.0902 23.8172C59.3606 24.0219 59.4957 24.3152 59.4957 24.6974C59.4957 25.0482 59.3606 25.3212 59.0902 25.5168C58.8199 25.7124 58.4437 25.8102 57.9616 25.8102C56.6642 25.8102 56.0154 25.2684 56.0154 24.1849H53.9813C53.9813 24.8188 54.1446 25.3764 54.4712 25.8574C54.7978 26.3386 55.272 26.7173 55.8938 26.9937C56.5155 27.2703 57.2048 27.4085 57.9616 27.4085C59.0519 27.4085 59.919 27.1669 60.5634 26.6836C61.2077 26.2003 61.5298 25.5337 61.5298 24.6839C61.5298 23.9196 61.2662 23.2812 60.7391 22.7685C60.212 22.256 59.3717 21.8266 58.2185 21.4804C57.5922 21.2916 57.118 21.0893 56.7959 20.8735C56.4737 20.6576 56.3127 20.3902 56.3127 20.0709C56.3127 19.7293 56.4501 19.4538 56.725 19.2447Z" fill="white"/>
<defs>
<linearGradient id="paint0_linear" x1="0" y1="23.497" x2="47.0972" y2="23.497" gradientUnits="userSpaceOnUse">
<stop stop-color="#1D236D"/>
<stop offset="1" stop-color="#953DB3"/>
</linearGradient>
</defs>
</svg>
